<svg width="139" height="43" viewBox="0 0 139 43" fill="none" xmlns="http://www.w3.org/2000/svg">
<rect x="77" y="3" width="58" height="18" fill="#14B8A6"/>
<path d="M9.15483 8.63778C9.09801 8.06487 8.85417 7.61979 8.4233 7.30256C7.99242 6.98532 7.40767 6.8267 6.66903 6.8267C6.16714 6.8267 5.74337 6.89773 5.39773 7.03977C5.05208 7.17708 4.78693 7.36884 4.60227 7.61506C4.42235 7.86127 4.33239 8.14062 4.33239 8.45312C4.32292 8.71354 4.37737 8.94081 4.49574 9.13494C4.61884 9.32907 4.78693 9.49716 5 9.6392C5.21307 9.77651 5.45928 9.89725 5.73864 10.0014C6.01799 10.1009 6.31629 10.1861 6.63352 10.2571L7.94034 10.5696C8.57481 10.7116 9.1572 10.901 9.6875 11.1378C10.2178 11.3745 10.6771 11.6657 11.0653 12.0114C11.4536 12.357 11.7543 12.7642 11.9673 13.233C12.1851 13.7017 12.2964 14.2391 12.3011 14.8452C12.2964 15.7353 12.0691 16.5071 11.6193 17.1605C11.1742 17.8092 10.5303 18.3134 9.6875 18.6733C8.84943 19.0284 7.83854 19.206 6.65483 19.206C5.48059 19.206 4.45786 19.026 3.58665 18.6662C2.72017 18.3063 2.04309 17.7737 1.5554 17.0682C1.07244 16.358 0.819129 15.4796 0.795455 14.4332H3.77131C3.80445 14.9209 3.94413 15.3281 4.19034 15.6548C4.44129 15.9768 4.77509 16.2206 5.19176 16.3864C5.61316 16.5473 6.08902 16.6278 6.61932 16.6278C7.14015 16.6278 7.59233 16.5521 7.97585 16.4006C8.36411 16.2491 8.66477 16.0384 8.87784 15.7685C9.09091 15.4986 9.19744 15.1884 9.19744 14.8381C9.19744 14.5114 9.10038 14.2367 8.90625 14.0142C8.71686 13.7917 8.4375 13.6023 8.06818 13.446C7.7036 13.2898 7.25616 13.1477 6.72585 13.0199L5.14205 12.6222C3.91572 12.3239 2.94744 11.8575 2.23722 11.223C1.52699 10.5885 1.17424 9.7339 1.17898 8.65909C1.17424 7.77841 1.40862 7.009 1.8821 6.35085C2.36032 5.69271 3.0161 5.17898 3.84943 4.80966C4.68277 4.44034 5.62973 4.25568 6.69034 4.25568C7.76989 4.25568 8.71212 4.44034 9.51705 4.80966C10.3267 5.17898 10.9564 5.69271 11.4062 6.35085C11.8561 7.009 12.0881 7.77131 12.1023 8.63778H9.15483ZM19.2844 19.2131C18.1623 19.2131 17.1964 18.9858 16.3867 18.5312C15.5818 18.072 14.9615 17.4233 14.5259 16.5852C14.0903 15.7424 13.8725 14.7457 13.8725 13.5952C13.8725 12.473 14.0903 11.4882 14.5259 10.6406C14.9615 9.79309 15.5747 9.13258 16.3654 8.65909C17.1609 8.18561 18.0936 7.94886 19.1637 7.94886C19.8834 7.94886 20.5534 8.06487 21.1737 8.29688C21.7987 8.52415 22.3432 8.86742 22.8072 9.3267C23.2759 9.78598 23.6405 10.3636 23.9009 11.0597C24.1613 11.7509 24.2915 12.5606 24.2915 13.4886V14.3196H15.0799V12.4446H21.4435C21.4435 12.009 21.3488 11.6231 21.1594 11.2869C20.9701 10.9508 20.7073 10.688 20.3711 10.4986C20.0397 10.3045 19.6538 10.2074 19.2134 10.2074C18.7541 10.2074 18.3469 10.3139 17.9918 10.527C17.6415 10.7353 17.3668 11.017 17.168 11.3722C16.9691 11.7225 16.8673 12.1132 16.8626 12.544V14.3267C16.8626 14.8665 16.962 15.3329 17.1609 15.7259C17.3645 16.1188 17.6509 16.4219 18.0202 16.6349C18.3896 16.848 18.8275 16.9545 19.3342 16.9545C19.6703 16.9545 19.9781 16.9072 20.2575 16.8125C20.5368 16.7178 20.7759 16.5758 20.9748 16.3864C21.1737 16.197 21.3252 15.965 21.4293 15.6903L24.2276 15.875C24.0856 16.5473 23.7944 17.1345 23.354 17.6364C22.9184 18.1335 22.355 18.5218 21.6637 18.8011C20.9772 19.0758 20.1841 19.2131 19.2844 19.2131ZM26.266 19V8.09091H29.1992V9.99432H29.3129C29.5117 9.31723 29.8455 8.80587 30.3143 8.46023C30.783 8.10985 31.3228 7.93466 31.9336 7.93466C32.0851 7.93466 32.2485 7.94413 32.4237 7.96307C32.5988 7.98201 32.7527 8.00805 32.8853 8.04119V10.7259C32.7433 10.6832 32.5468 10.6454 32.2958 10.6122C32.0449 10.5791 31.8152 10.5625 31.6069 10.5625C31.1618 10.5625 30.7641 10.6596 30.4137 10.8537C30.0681 11.0431 29.7934 11.3082 29.5898 11.6491C29.391 11.9901 29.2915 12.383 29.2915 12.8281V19H26.266ZM44.9521 8.09091L41.1381 19H37.729L33.9151 8.09091H37.1112L39.3768 15.8963H39.4904L41.7489 8.09091H44.9521ZM46.5004 19V8.09091H49.5259V19H46.5004ZM48.0202 6.68466C47.5704 6.68466 47.1845 6.53551 46.8626 6.23722C46.5453 5.93419 46.3867 5.57197 46.3867 5.15057C46.3867 4.7339 46.5453 4.37642 46.8626 4.07812C47.1845 3.77509 47.5704 3.62358 48.0202 3.62358C48.4701 3.62358 48.8536 3.77509 49.1708 4.07812C49.4928 4.37642 49.6538 4.7339 49.6538 5.15057C49.6538 5.57197 49.4928 5.93419 49.1708 6.23722C48.8536 6.53551 48.4701 6.68466 48.0202 6.68466ZM56.8786 19.2131C55.7611 19.2131 54.8 18.9763 53.995 18.5028C53.1948 18.0246 52.5793 17.3617 52.1484 16.5142C51.7223 15.6667 51.5092 14.6913 51.5092 13.5881C51.5092 12.4706 51.7247 11.4905 52.1555 10.6477C52.5911 9.80019 53.209 9.13968 54.0092 8.66619C54.8094 8.18797 55.7611 7.94886 56.8643 7.94886C57.8161 7.94886 58.6494 8.12169 59.3643 8.46733C60.0793 8.81297 60.6451 9.2983 61.0618 9.9233C61.4785 10.5483 61.7081 11.2822 61.7507 12.125H58.8956C58.8151 11.5805 58.602 11.1425 58.2564 10.8111C57.9155 10.4749 57.468 10.3068 56.9141 10.3068C56.4453 10.3068 56.0357 10.4347 55.6854 10.6903C55.3397 10.9413 55.0698 11.3082 54.8757 11.7912C54.6816 12.2741 54.5845 12.8589 54.5845 13.5455C54.5845 14.2415 54.6792 14.8333 54.8686 15.321C55.0627 15.8087 55.335 16.1804 55.6854 16.4361C56.0357 16.6918 56.4453 16.8196 56.9141 16.8196C57.2597 16.8196 57.5698 16.7486 57.8445 16.6065C58.1238 16.4645 58.3535 16.2585 58.5334 15.9886C58.718 15.714 58.8388 15.3849 58.8956 15.0014H61.7507C61.7034 15.8348 61.4761 16.5687 61.0689 17.2031C60.6664 17.8329 60.1101 18.3253 59.3999 18.6804C58.6896 19.0355 57.8492 19.2131 56.8786 19.2131ZM68.6594 19.2131C67.5373 19.2131 66.5714 18.9858 65.7617 18.5312C64.9568 18.072 64.3365 17.4233 63.9009 16.5852C63.4653 15.7424 63.2475 14.7457 63.2475 13.5952C63.2475 12.473 63.4653 11.4882 63.9009 10.6406C64.3365 9.79309 64.9497 9.13258 65.7404 8.65909C66.5359 8.18561 67.4686 7.94886 68.5387 7.94886C69.2584 7.94886 69.9284 8.06487 70.5487 8.29688C71.1737 8.52415 71.7182 8.86742 72.1822 9.3267C72.6509 9.78598 73.0155 10.3636 73.2759 11.0597C73.5363 11.7509 73.6665 12.5606 73.6665 13.4886V14.3196H64.4549V12.4446H70.8185C70.8185 12.009 70.7238 11.6231 70.5344 11.2869C70.3451 10.9508 70.0823 10.688 69.7461 10.4986C69.4147 10.3045 69.0288 10.2074 68.5884 10.2074C68.1291 10.2074 67.7219 10.3139 67.3668 10.527C67.0165 10.7353 66.7418 11.017 66.543 11.3722C66.3441 11.7225 66.2423 12.1132 66.2376 12.544V14.3267C66.2376 14.8665 66.337 15.3329 66.5359 15.7259C66.7395 16.1188 67.0259 16.4219 67.3952 16.6349C67.7646 16.848 68.2025 16.9545 68.7092 16.9545C69.0453 16.9545 69.3531 16.9072 69.6325 16.8125C69.9118 16.7178 70.1509 16.5758 70.3498 16.3864C70.5487 16.197 70.7002 15.965 70.8043 15.6903L73.6026 15.875C73.4606 16.5473 73.1694 17.1345 72.729 17.6364C72.2934 18.1335 71.73 18.5218 71.0387 18.8011C70.3522 19.0758 69.5591 19.2131 68.6594 19.2131Z" fill="#14B8A6"/>
<path d="M81.0245 6.01705V4.45455H91.9336V6.01705H87.3597V19H85.5984V6.01705H81.0245ZM93.2919 19V8.09091H94.9112V9.73864H95.0249C95.2237 9.19886 95.5836 8.76089 96.1044 8.42472C96.6252 8.08854 97.2124 7.92045 97.8658 7.92045C97.9889 7.92045 98.1428 7.92282 98.3274 7.92756C98.5121 7.93229 98.6518 7.93939 98.7464 7.94886V9.65341C98.6896 9.6392 98.5594 9.6179 98.3558 9.58949C98.157 9.55634 97.9463 9.53977 97.7237 9.53977C97.1934 9.53977 96.7199 9.65104 96.3033 9.87358C95.8913 10.0914 95.5646 10.3944 95.3232 10.7827C95.0864 11.1662 94.968 11.6042 94.968 12.0966V19H93.2919ZM103.944 19.2557C103.252 19.2557 102.625 19.1255 102.061 18.8651C101.498 18.5999 101.051 18.2188 100.719 17.7216C100.388 17.2197 100.222 16.6136 100.222 15.9034C100.222 15.2784 100.345 14.7718 100.591 14.3835C100.837 13.9905 101.167 13.6828 101.578 13.4602C101.99 13.2377 102.445 13.072 102.942 12.9631C103.444 12.8494 103.948 12.7595 104.455 12.6932C105.118 12.608 105.655 12.544 106.067 12.5014C106.484 12.4541 106.787 12.3759 106.976 12.267C107.17 12.1581 107.267 11.9687 107.267 11.6989V11.642C107.267 10.9413 107.076 10.3968 106.692 10.0085C106.313 9.62027 105.738 9.42614 104.966 9.42614C104.166 9.42614 103.539 9.60133 103.084 9.9517C102.63 10.3021 102.31 10.6761 102.125 11.0739L100.534 10.5057C100.819 9.8428 101.197 9.3267 101.671 8.95739C102.149 8.58333 102.67 8.32292 103.233 8.17614C103.801 8.02462 104.36 7.94886 104.909 7.94886C105.26 7.94886 105.662 7.99148 106.117 8.0767C106.576 8.1572 107.019 8.32528 107.445 8.58097C107.876 8.83665 108.233 9.22254 108.517 9.73864C108.801 10.2547 108.944 10.946 108.944 11.8125V19H107.267V17.5227H107.182C107.069 17.7595 106.879 18.0128 106.614 18.2827C106.349 18.5526 105.996 18.7822 105.556 18.9716C105.115 19.161 104.578 19.2557 103.944 19.2557ZM104.199 17.75C104.862 17.75 105.421 17.6198 105.875 17.3594C106.335 17.099 106.68 16.7628 106.912 16.3509C107.149 15.9389 107.267 15.5057 107.267 15.0511V13.517C107.196 13.6023 107.04 13.6804 106.799 13.7514C106.562 13.8177 106.287 13.8769 105.975 13.929C105.667 13.9763 105.366 14.0189 105.073 14.0568C104.784 14.09 104.55 14.1184 104.37 14.142C103.934 14.1989 103.527 14.2912 103.148 14.419C102.774 14.5421 102.471 14.7292 102.239 14.9801C102.012 15.2263 101.898 15.5625 101.898 15.9886C101.898 16.571 102.114 17.0114 102.544 17.3097C102.98 17.6032 103.532 17.75 104.199 17.75ZM116.435 19.2273C115.412 19.2273 114.531 18.9858 113.793 18.5028C113.054 18.0199 112.486 17.3546 112.088 16.5071C111.69 15.6596 111.491 14.6913 111.491 13.6023C111.491 12.4943 111.695 11.5166 112.102 10.669C112.514 9.81676 113.087 9.15152 113.821 8.6733C114.56 8.19034 115.421 7.94886 116.406 7.94886C117.173 7.94886 117.865 8.09091 118.48 8.375C119.096 8.65909 119.6 9.05682 119.993 9.56818C120.386 10.0795 120.63 10.6761 120.724 11.358H119.048C118.92 10.8608 118.636 10.4205 118.196 10.0369C117.76 9.64867 117.173 9.45455 116.435 9.45455C115.781 9.45455 115.208 9.625 114.716 9.96591C114.228 10.3021 113.847 10.7779 113.572 11.3935C113.303 12.0043 113.168 12.7216 113.168 13.5455C113.168 14.3883 113.3 15.1222 113.565 15.7472C113.835 16.3722 114.214 16.8575 114.702 17.2031C115.194 17.5488 115.772 17.7216 116.435 17.7216C116.87 17.7216 117.266 17.6458 117.621 17.4943C117.976 17.3428 118.277 17.125 118.523 16.8409C118.769 16.5568 118.944 16.2159 119.048 15.8182H120.724C120.63 16.4621 120.395 17.0421 120.021 17.5582C119.652 18.0696 119.162 18.4768 118.551 18.7798C117.945 19.0781 117.24 19.2273 116.435 19.2273ZM124.737 15.0227L124.709 12.9489H125.05L129.822 8.09091H131.896L126.811 13.233H126.669L124.737 15.0227ZM123.175 19V4.45455H124.851V19H123.175ZM130.107 19L125.845 13.6023L127.038 12.4375L132.237 19H130.107Z" fill="white"/>
<path d="M58.7656 31.3906V35H57.8438V27H58.7656V29.9375H58.8438C58.9844 29.6276 59.1953 29.3815 59.4766 29.1992C59.7604 29.0143 60.138 28.9219 60.6094 28.9219C61.0182 28.9219 61.3763 29.0039 61.6836 29.168C61.9909 29.3294 62.2292 29.5781 62.3984 29.9141C62.5703 30.2474 62.6563 30.6719 62.6563 31.1875V35H61.7344V31.25C61.7344 30.7734 61.6107 30.4049 61.3633 30.1445C61.1185 29.8815 60.7786 29.75 60.3438 29.75C60.0417 29.75 59.7708 29.8138 59.5313 29.9414C59.2943 30.069 59.1068 30.2552 58.9688 30.5C58.8333 30.7448 58.7656 31.0417 58.7656 31.3906ZM68.124 32.5469V29H69.0459V35H68.124V33.9844H68.0615C67.9209 34.2891 67.7021 34.5482 67.4053 34.7617C67.1084 34.9727 66.7334 35.0781 66.2803 35.0781C65.9053 35.0781 65.5719 34.9961 65.2803 34.832C64.9886 34.6654 64.7594 34.4154 64.5928 34.082C64.4261 33.7461 64.3428 33.3229 64.3428 32.8125V29H65.2646V32.75C65.2646 33.1875 65.387 33.5365 65.6318 33.7969C65.8792 34.0573 66.1943 34.1875 66.5771 34.1875C66.8063 34.1875 67.0394 34.1289 67.2764 34.0117C67.516 33.8945 67.7165 33.7148 67.8779 33.4727C68.042 33.2305 68.124 32.9219 68.124 32.5469ZM70.8594 35V27H71.7812V29.9531H71.8594C71.9271 29.849 72.0208 29.7161 72.1406 29.5547C72.263 29.3906 72.4375 29.2448 72.6641 29.1172C72.8932 28.987 73.2031 28.9219 73.5938 28.9219C74.099 28.9219 74.5443 29.0482 74.9297 29.3008C75.3151 29.5534 75.6159 29.9115 75.832 30.375C76.0482 30.8385 76.1563 31.3854 76.1563 32.0156C76.1563 32.651 76.0482 33.2018 75.832 33.668C75.6159 34.1315 75.3164 34.4909 74.9336 34.7461C74.5508 34.9987 74.1094 35.125 73.6094 35.125C73.224 35.125 72.9154 35.0612 72.6836 34.9336C72.4518 34.8034 72.2734 34.6562 72.1484 34.4922C72.0234 34.3255 71.9271 34.1875 71.8594 34.0781H71.75V35H70.8594ZM71.7656 32C71.7656 32.4531 71.832 32.8529 71.9648 33.1992C72.0977 33.543 72.2917 33.8125 72.5469 34.0078C72.8021 34.2005 73.1146 34.2969 73.4844 34.2969C73.8698 34.2969 74.1914 34.1953 74.4492 33.9922C74.7096 33.7865 74.9049 33.5104 75.0352 33.1641C75.168 32.8151 75.2344 32.4271 75.2344 32C75.2344 31.5781 75.1693 31.1979 75.0391 30.8594C74.9115 30.5182 74.7174 30.2487 74.457 30.0508C74.1992 29.8503 73.875 29.75 73.4844 29.75C73.1094 29.75 72.7943 29.8451 72.5391 30.0352C72.2839 30.2227 72.0911 30.4857 71.9609 30.8242C71.8307 31.1602 71.7656 31.5521 71.7656 32Z" fill="#14B8A6"/>
</svg>
